<?xml version="1.0" encoding="UTF-8" standalone="no"?>
<svg
   xmlns:dc="http://purl.org/dc/elements/1.1/"
   xmlns:cc="http://creativecommons.org/ns#"
   xmlns:rdf="http://www.w3.org/1999/02/22-rdf-syntax-ns#"
   xmlns:svg="http://www.w3.org/2000/svg"
   xmlns="http://www.w3.org/2000/svg"
   xmlns:sodipodi="http://sodipodi.sourceforge.net/DTD/sodipodi-0.dtd"
   xmlns:inkscape="http://www.inkscape.org/namespaces/inkscape"
   version="1.1"
   id="svg2"
   width="128"
   height="128"
   viewBox="0 0 128 128"
   sodipodi:docname="bookmark-missing-open.svg.svg"
   inkscape:version="1.0.1 (3bc2e813f5, 2020-09-07)">
  <metadata
     id="metadata8">
    <rdf:RDF>
      <cc:Work
         rdf:about="">
        <dc:format>image/svg+xml</dc:format>
        <dc:type
           rdf:resource="http://purl.org/dc/dcmitype/StillImage" />
        <dc:title></dc:title>
      </cc:Work>
    </rdf:RDF>
  </metadata>
  <defs
     id="defs6">
    <filter
       inkscape:label="Film Grain"
       inkscape:menu="Image Effects"
       inkscape:menu-tooltip="Adds a small scale graininess"
       style="color-interpolation-filters:sRGB"
       id="filter898">
      <feTurbulence
         type="fractalNoise"
         numOctaves="3"
         baseFrequency="1"
         seed="0"
         result="result0"
         id="feTurbulence888" />
      <feColorMatrix
         result="result4"
         values="0"
         type="saturate"
         id="feColorMatrix890" />
      <feComposite
         in="SourceGraphic"
         in2="result4"
         operator="arithmetic"
         k1="1.25"
         k2="0.5"
         k3="0.5"
         result="result2"
         id="feComposite892"
         k4="0" />
      <feBlend
         result="result5"
         mode="normal"
         in="result2"
         in2="SourceGraphic"
         id="feBlend894" />
      <feComposite
         in="result5"
         in2="SourceGraphic"
         operator="in"
         result="result3"
         id="feComposite896" />
    </filter>
    <filter
       inkscape:label="Film Grain"
       inkscape:menu="Image Effects"
       inkscape:menu-tooltip="Adds a small scale graininess"
       style="color-interpolation-filters:sRGB;"
       id="filter883">
      <feTurbulence
         type="fractalNoise"
         numOctaves="3"
         baseFrequency="1"
         seed="0"
         result="result0"
         id="feTurbulence873" />
      <feColorMatrix
         result="result4"
         values="0"
         type="saturate"
         id="feColorMatrix875" />
      <feComposite
         in="SourceGraphic"
         in2="result4"
         operator="arithmetic"
         k1="1.25"
         k2="0.5"
         k3="0.5"
         result="result2"
         id="feComposite877" />
      <feBlend
         result="result5"
         mode="normal"
         in="result2"
         in2="SourceGraphic"
         id="feBlend879" />
      <feComposite
         in="result5"
         in2="SourceGraphic"
         operator="in"
         result="result3"
         id="feComposite881" />
    </filter>
    <filter
       inkscape:label="Cross Noise"
       inkscape:menu="Overlays"
       inkscape:menu-tooltip="Adds a small scale screen like graininess"
       style="color-interpolation-filters:sRGB;"
       id="filter904">
      <feTurbulence
         type="fractalNoise"
         numOctaves="5"
         baseFrequency="1"
         seed="0"
         result="result0"
         id="feTurbulence892" />
      <feConvolveMatrix
         kernelMatrix="-2 0 -2 0 -10 0 -2 0 -2 "
         order="3 3"
         result="result5"
         id="feConvolveMatrix894" />
      <feColorMatrix
         result="result4"
         values="0"
         type="saturate"
         in="result5"
         id="feColorMatrix896" />
      <feComposite
         in2="result4"
         in="SourceGraphic"
         operator="arithmetic"
         k1="1.5"
         k2="0.5"
         k3="0.5"
         result="result2"
         id="feComposite898" />
      <feBlend
         result="result6"
         in2="result4"
         mode="normal"
         id="feBlend900" />
      <feComposite
         in2="SourceGraphic"
         in="result6"
         operator="in"
         result="result3"
         id="feComposite902" />
    </filter>
    <linearGradient
       id="linearGradient3866">
      <stop
         id="stop3868"
         offset="0"
         style="stop-color:#000000;stop-opacity:0.52083331" />
      <stop
         id="stop3870"
         offset="1"
         style="stop-color:#2883c3;stop-opacity:0;" />
    </linearGradient>
    <linearGradient
       id="linearGradient3874">
      <stop
         id="stop3876"
         offset="0"
         style="stop-color:#000d0e;stop-opacity:0.84105963;" />
      <stop
         id="stop3878"
         offset="1"
         style="stop-color:#000000;stop-opacity:0;" />
    </linearGradient>
  </defs>
  <sodipodi:namedview
     pagecolor="#ffffff"
     bordercolor="#666666"
     borderopacity="1"
     objecttolerance="10"
     gridtolerance="10"
     guidetolerance="10"
     inkscape:pageopacity="0"
     inkscape:pageshadow="2"
     inkscape:window-width="824"
     inkscape:window-height="421"
     id="namedview4"
     showgrid="false"
     inkscape:zoom="4.3032501"
     inkscape:cx="61.448444"
     inkscape:cy="69.63037"
     inkscape:window-x="1084"
     inkscape:window-y="647"
     inkscape:window-maximized="0"
     inkscape:current-layer="svg2"
     inkscape:document-rotation="0" />
  <path
     style="opacity:1;fill:#154b44;fill-opacity:1;stroke:none;stroke-width:0.78956169;stroke-linecap:round;stroke-linejoin:round;stroke-miterlimit:4;stroke-dasharray:none;stroke-dashoffset:0;stroke-opacity:0.85098039;paint-order:fill markers stroke"
     d="m 7.93424,28.214947 c -3.39101,0 -6.12143,2.72966 -6.12143,6.12064 v 27.21058 c 19.29378,15.45725 121.85448,17.08511 124.92215,4.10729 v -21.8277 c 0,-3.39099 -2.73042,-6.12065 -6.12139,-6.12065 H 48.99014 c -3.59598,0 -5.76696,-4.55304 -8.20378,-7.85362 -1.09185,-1.01636 -2.5579,-1.63654 -4.17426,-1.63654 z"
     id="rect838"
     inkscape:connector-curvature="0"
     sodipodi:nodetypes="ssccssscss" />
  <path
     style="opacity:1;fill:#1e685d;fill-opacity:1;stroke:none;stroke-width:0.789562;stroke-linecap:round;stroke-linejoin:round;stroke-miterlimit:4;stroke-dasharray:none;stroke-dashoffset:0;stroke-opacity:0.85098;paint-order:fill markers stroke"
     d="m 8.38402,43.357187 c -3.61237,0 -6.52083,2.90771 -6.52083,6.52005 v 27.214434 42.088109 3.24383 c 0,1.81543 1.46155,3.27699 3.27699,3.27699 h 3.24384 111.81164 3.24305 c 1.81544,0 3.27699,-1.46156 3.27699,-3.27699 V 119.17978 77.091671 49.877237 c 0,-3.61234 -2.90771,-6.52005 -6.52004,-6.52005 z"
     id="rect817"
     inkscape:connector-curvature="0" />
  <path
     inkscape:connector-curvature="0"
     style="opacity:1;fill:#ebf5fa;fill-opacity:0.23626374;stroke:none;stroke-width:0.78956169;stroke-linecap:round;stroke-linejoin:round;stroke-miterlimit:4;stroke-dasharray:none;stroke-dashoffset:0;stroke-opacity:0.85098039;paint-order:fill markers stroke"
     d="m 8.38402,43.357187 c -3.61236,0 -6.52082,2.90772 -6.52082,6.52005 v 0.27527 c 0,-3.61233 2.90846,-6.52005 6.52082,-6.52005 h 111.81165 c 3.61232,0 6.52005,2.90772 6.52005,6.52005 v -0.27527 c 0,-3.61233 -2.90773,-6.52005 -6.52005,-6.52005 z"
     id="path904" />
  <path
     style="fill:none;stroke:#ffffff;stroke-width:0.31582469;stroke-linecap:butt;stroke-linejoin:miter;stroke-miterlimit:4;stroke-dasharray:none;stroke-opacity:0.2527473"
     d="M 2.09504,115.95084 H 126.38613"
     id="path909"
     inkscape:connector-curvature="0" />
  <g
     id="g925"
     transform="matrix(0.39478084,0,0,0.39478084,-44.90948,-40.528782)">
    <path
       inkscape:connector-curvature="0"
       id="path919"
       d="M 118.62489,404.50427 H 433.46057"
       style="fill:none;stroke:#ffffff;stroke-width:0.80000001;stroke-linecap:butt;stroke-linejoin:miter;stroke-miterlimit:4;stroke-dasharray:none;stroke-opacity:0.18681317" />
    <path
       style="fill:none;stroke:#22394c;stroke-width:0.80000001;stroke-linecap:butt;stroke-linejoin:miter;stroke-miterlimit:4;stroke-dasharray:none;stroke-opacity:0.27472528"
       d="M 118.62489,403.68267 H 433.46057"
       id="path921"
       inkscape:connector-curvature="0" />
  </g>
  <g
     id="g931"
     transform="matrix(0.39478084,0,0,0.39478084,-44.90948,-37.088532)">
    <path
       style="fill:none;stroke:#ffffff;stroke-width:0.80000001;stroke-linecap:butt;stroke-linejoin:miter;stroke-miterlimit:4;stroke-dasharray:none;stroke-opacity:0.18681317"
       d="M 118.62489,404.50427 H 433.46057"
       id="path927"
       inkscape:connector-curvature="0" />
    <path
       inkscape:connector-curvature="0"
       id="path929"
       d="M 118.62489,403.68267 H 433.46057"
       style="fill:none;stroke:#22394c;stroke-width:0.80000001;stroke-linecap:butt;stroke-linejoin:miter;stroke-miterlimit:4;stroke-dasharray:none;stroke-opacity:0.29670332" />
  </g>
  <path
     style="opacity:1;fill:#154b44;fill-opacity:1;stroke-width:2.2138629"
     d="M 64.28882,53.900903 C 49.71734,53.901169 37.9052,65.714192 37.90601,80.285669 37.90628,94.856382 49.71811,106.66821 64.28882,106.66848 78.86029,106.66929 90.67331,94.857143 90.67358,80.285669 90.67439,65.71343 78.86106,53.900092 64.28882,53.900903 Z m 0,2.882813 c 12.9798,-6.2e-5 23.50201,10.522158 23.50195,23.501953 6e-5,12.979794 -10.52216,23.502011 -23.50195,23.501951 -12.97979,6e-5 -23.50201,-10.522157 -23.50195,-23.501951 -6e-5,-12.979795 10.52215,-23.502015 23.50195,-23.501953 z m -0.19531,2.708984 -1.79883,0.0918 0.0898,1.798828 1.79883,-0.08984 z m 3.76172,0.310547 -0.27344,1.787109 0.52734,0.07617 1.14258,0.292969 0.44531,-1.742188 -1.17187,-0.302734 -0.0879,-0.02148 z m -9.26758,0.490234 -0.44141,0.109375 -0.0859,0.03125 -1.26172,0.462891 0.61719,1.691406 1.23242,-0.449219 0.38477,-0.09961 z m 14.64648,1.222656 -0.7832,1.63086 0.85547,0.410156 h 0.0137 l 0.64062,0.384766 0.9375,-1.535157 -0.65625,-0.396484 -0.0742,-0.04492 z m -19.8125,1.050782 -0.72656,0.445312 -0.0703,0.04883 -0.75977,0.570313 1.07617,1.439453 0.74024,-0.548828 0.0215,-0.02344 0.65625,-0.394531 z m 24.52539,2.054687 -1.21094,1.330078 0.99024,0.900391 0.0801,0.08789 L 61.5779,77.416527 48.90993,94.832543 67.00173,83.152855 79.6697,65.736839 l -0.55078,0.355469 0.19336,-0.173828 -0.28516,-0.310547 -0.0605,-0.05859 z m -28.88476,1.519531 -0.79492,0.878907 -0.0527,0.06445 -0.37109,0.496093 1.43945,1.078126 0.35938,-0.476563 0.0137,-0.02344 0.73828,-0.808594 z m 32.60351,2.714844 -1.53906,0.939453 0.86328,1.423828 0.0215,0.04102 h 0.008 0.004 l 0.0645,-0.03906 1.54883,-0.748047 -0.0352,-0.07617 -0.043,-0.07227 z m -35.84961,1.890625 -0.67578,1.402344 -0.0293,0.07422 -0.0918,0.242187 1.6914,0.619141 0.0566,-0.158203 0.008,-0.02344 0.66211,-1.375 z m 38.25782,3.119141 -1.69141,0.621093 0.0391,0.105469 0.40235,1.546875 1.74218,-0.449218 -0.39648,-1.552735 -0.0312,-0.08594 z m -40.13477,2.125 -0.0176,0.05664 -0.0176,0.0918 -0.26367,1.716797 1.78125,0.271485 0.25977,-1.685547 0.004,-0.03125 -0.28906,-0.04492 z m 20.34961,2.488281 c 0.99716,-3.53e-4 1.80591,0.807525 1.80664,1.804688 3.5e-4,0.997926 -0.80871,1.806993 -1.80664,1.80664 -0.99716,-7.24e-4 -1.80504,-0.809476 -1.80469,-1.80664 7.2e-4,-0.996402 0.80829,-1.803965 1.80469,-1.804688 z m 20.75781,0.957031 -1.79492,0.0918 0.0352,0.751953 -0.0859,1.75586 1.79883,0.0918 0.0898,-1.798829 -0.89844,-0.04883 0.89844,-0.04492 z m -39.69336,2.103516 -1.79492,0.0918 0.0352,0.730468 0.008,0.0918 0.16016,1.054688 1.78125,-0.271485 -0.15625,-1.011718 z m 37.22071,3.863281 -0.14844,0.560547 -0.004,0.02148 -0.38086,1.039063 1.6875,0.617187 0.41016,-1.11914 0.0293,-0.08594 0.14843,-0.589843 z m -36.20508,1.138672 -1.69141,0.623047 0.43359,1.171875 0.0293,0.08203 0.24219,0.498047 1.62109,-0.783203 -0.22851,-0.474609 -0.008,-0.02539 z m 34.17187,3.542969 -0.4707,0.787109 -0.0176,0.02148 -0.45898,0.619141 1.43945,1.076172 0.48047,-0.640625 0.0488,-0.06836 0.51758,-0.859375 z m -31.85351,1.017578 -1.44141,1.087891 0.96875,1.292968 0.0527,0.06445 0.125,0.136719 1.33203,-1.210937 -0.0703,-0.07422 -0.0117,-0.02148 z m 28.64453,2.982422 -0.92383,0.833984 -0.0176,0.02148 -0.35547,0.263671 1.08203,1.445313 0.3711,-0.28125 0.0644,-0.05078 0.99024,-0.900391 z m -25.16016,0.833984 -0.32812,0.435547 -0.84375,0.929688 0.0254,0.02344 0.0644,0.05078 1.41992,1.058594 1.07617,-1.439453 z m 21.00586,2.142577 -1.45312,0.71485 h -0.0254 l -0.0703,0.0254 0.62305,1.689452 0.0957,-0.0352 0.0781,-0.0352 1.5293,-0.738292 z m -16.59961,0.57813 -0.7832,1.621092 0.35937,0.17187 0.082,0.0352 1.31446,0.48047 0.61914,-1.691412 -1.27149,-0.46289 z m 11.70508,1.20898 -0.14258,0.041 -1.54492,0.238282 0.27344,1.77734 1.56836,-0.23828 0.0879,-0.0215 0.20703,-0.0547 z m -6.79297,0.19141 -0.27344,1.791012 0.9043,0.14063 h 0.0918 l 0.88476,0.043 0.0918,-1.79883 -0.84375,-0.0391 z"
     id="path980-7"
     inkscape:connector-curvature="0"
     sodipodi:nodetypes="cccccccccccccccccccccccccccccccccccccccccccccccccccccccccccccccccccccccccccccccccccccccccccccccccccccccccccccccccccccccccccccccccccccccccccccccccccccccccccccccccccccccccccccccccccccccccccccccccccccccccccccccccccccccc" />
</svg>
